# xmcd
#
# Track frame offsets: 
#        150
#        16749
#        38834
#        53487
#        71149
#        89422
#        100532
#        113347
#        131131
#        151940
#        168159
#        184213
#        199767
#        220836
#        239681
#        257518
#        274121
#        296395
#        310910
#        334593
#
# Disc length: 4714 seconds
#
# Revision: 0
# Processed by: cddbd v1.5.2PL0 Copyright (c) Steve Scherf et al.
# Submitted via: ExactAudioCopy v1.1
#
DISCID=10126814
DTITLE=Frank Boeijen Groep - The Golden Years Of Dutch Pop Music - CD 
DTITLE=2
DYEAR=2017
DGENRE=Pop-Folk
TTITLE0=1.000.000 Sterren
TTITLE1=Het Antwoord (Live)
TTITLE2=Kontakt
TTITLE3=Macho (Live)
TTITLE4=Kronenburg Park (Ga Die Wereld Uit)
TTITLE5=De Waarheid
TTITLE6=Schaduw
TTITLE7=Kronenburg Park (Special Version)
TTITLE8=De Beloning
TTITLE9=Volle Maan
TTITLE10=Verslaafd Aan Jou
TTITLE11=Op Zoek Naar De Verloren Tijd
TTITLE12=De Verzoening
TTITLE13=Niemand Heeft Gelijk
TTITLE14=Goudzoekers (Remix)
TTITLE15=Mantel Der Liefde
TTITLE16=Welkom In Utopia 2
TTITLE17=De Tijden
TTITLE18=Winter In Hamburg
TTITLE19=Welkom In Utopia 1 (Akoestische Versie)
EXTD=
EXTT0=
EXTT1=
EXTT2=
EXTT3=
EXTT4=
EXTT5=
EXTT6=
EXTT7=
EXTT8=
EXTT9=
EXTT10=
EXTT11=
EXTT12=
EXTT13=
EXTT14=
EXTT15=
EXTT16=
EXTT17=
EXTT18=
EXTT19=
PLAYORDER=
